<svg xmlns="http://www.w3.org/2000/svg" viewBox="0 0 32 32" id="game-console" fill="#ffffff"><g data-name="game console"><circle cx="5.26" cy="22.44" r="1.61"></circle><circle cx="16" cy="16" r="4.83"></circle><path d="M10.09 10.53V5.8H2.22a.72.72 0 0 0-.72.72v19a.72.72 0 0 0 .72.72h7.87v-4.77a8 8 0 0 1 0-10.94Zm-4.83 14.6a2.69 2.69 0 1 1 2.68-2.69 2.69 2.69 0 0 1-2.68 2.69Z"></path><circle cx="26.74" cy="17.07" r=".54"></circle><path d="M21 11.12a.56.56 0 0 1-.15-.37V5.8h-9.68v5a.56.56 0 0 1-.15.37 7 7 0 0 0 0 9.76.56.56 0 0 1 .15.37v4.9h9.66v-4.95a.56.56 0 0 1 .15-.37 7 7 0 0 0 0-9.76Zm-5 10.79A5.91 5.91 0 1 1 21.91 16 5.93 5.93 0 0 1 16 21.91Z"></path><path d="M29.78 5.8h-7.87v4.73a8 8 0 0 1 0 10.94v4.73h7.87a.72.72 0 0 0 .72-.72v-19a.72.72 0 0 0-.72-.68Zm-3 9.66a1.62 1.62 0 1 1-1.61 1.61 1.61 1.61 0 0 1 1.57-1.61Zm0 9.67a2.69 2.69 0 1 1 2.69-2.69 2.68 2.68 0 0 1-2.73 2.69Z"></path><circle cx="26.74" cy="22.44" r="1.61"></circle></g></svg>